<svg width="691" height="465" viewBox="0 0 691 465" fill="none" xmlns="http://www.w3.org/2000/svg">
<g clip-path="url(#clip0_336_530)">
<path d="M135.417 78.0835C148.738 78.0835 159.537 67.9683 159.537 55.4905C159.537 43.0127 148.738 32.8975 135.417 32.8975C122.095 32.8975 111.296 43.0127 111.296 55.4905C111.296 67.9683 122.095 78.0835 135.417 78.0835Z" fill="#2F2E41"/>
<path d="M61.9525 327.493L76.7715 279.354L81.8162 280.83C81.8162 280.83 75.8256 316.861 66.3667 326.016L61.9525 327.493Z" fill="#2F2E41"/>
<path d="M118.391 69.0765C118.391 69.0765 120.282 87.9779 115.868 93.2939C111.454 98.6099 118.706 108.947 118.706 108.947L131.948 123.713L151.497 115.444L154.335 100.087L152.443 89.4545C152.443 89.4545 145.822 83.2525 148.659 72.0298C151.497 60.8071 118.391 69.0765 118.391 69.0765Z" fill="#FFB9B9"/>
<path opacity="0.1" d="M118.391 69.0765C118.391 69.0765 120.282 87.9779 115.868 93.2939C111.454 98.6099 118.706 108.947 118.706 108.947L131.948 123.713L151.497 115.444L154.335 100.087L152.443 89.4545C152.443 89.4545 145.822 83.2525 148.659 72.0298C151.497 60.8071 118.391 69.0765 118.391 69.0765Z" fill="black"/>
<path d="M129.741 422.591V434.699L147.083 437.947L145.506 417.865L129.741 422.591Z" fill="#FFB9B9"/>
<path d="M181.766 417.865L177.982 434.699L185.549 439.72L198.792 430.565L197.215 416.093L181.766 417.865Z" fill="#FFB9B9"/>
<path d="M148.659 436.471C148.659 436.471 142.038 425.988 129.741 432.558C129.741 432.558 127.534 444.15 125.327 445.036C123.12 445.922 110.824 462.756 125.327 464.232C139.831 465.709 147.083 461.279 147.083 461.279C147.083 461.279 144.245 463.566 148.659 462.385C153.073 461.203 151.182 454.706 151.182 454.706L148.659 436.471Z" fill="#2F2E41"/>
<path d="M191.855 429.384C191.855 429.384 182.081 435.881 180.504 432.928C178.928 429.974 176.405 430.27 176.405 430.27C176.405 430.27 167.577 461.443 173.252 462.919C176.907 463.762 180.745 463.577 184.288 462.386C184.288 462.386 191.855 457.422 191.855 461.261C191.855 465.1 212.98 464.824 221.808 464.529C230.636 464.233 225.907 458.031 225.907 458.031L214.241 447.399L200.998 429.384C200.998 429.384 195.008 424.363 191.855 429.384Z" fill="#2F2E41"/>
<path d="M98.8422 231.805L112.085 350.824C112.085 350.824 119.337 423.476 120.598 424.658C121.859 425.839 130.057 429.678 148.029 424.658L143.93 329.56L151.497 270.493L168.838 311.249C168.838 311.249 172.937 420.818 175.775 420.818C178.612 420.818 195.954 426.134 200.053 419.637C204.151 413.139 203.521 343.145 203.521 343.145C203.521 343.145 201.629 232.691 187.756 229.147C173.883 225.603 98.8422 231.805 98.8422 231.805Z" fill="#2F2E41"/>
<path d="M135.417 80.0031C147.432 80.0031 157.172 70.8796 157.172 59.6251C157.172 48.3706 147.432 39.2471 135.417 39.2471C123.401 39.2471 113.661 48.3706 113.661 59.6251C113.661 70.8796 123.401 80.0031 135.417 80.0031Z" fill="#FFB9B9"/>
<path d="M136.678 116.329C136.678 116.329 134.471 103.63 134.471 101.267C134.471 98.9043 124.697 97.4277 124.697 97.4277C124.697 97.4277 117.129 89.4537 115.553 90.635C113.976 91.8163 90.0139 106.878 86.2303 108.946C82.4468 111.013 78.3479 119.873 78.6632 120.464C78.9785 121.054 98.5269 159.448 98.5269 159.448C98.5269 159.448 107.04 183.074 101.049 195.478C95.0587 207.882 87.4916 232.395 98.5269 237.416C109.562 242.437 163.163 253.364 172.937 243.913C182.711 234.463 189.648 231.804 192.17 231.804C194.692 231.804 181.765 190.753 184.603 186.914C187.441 183.074 183.342 159.152 183.342 159.152L197.845 121.054C197.845 121.054 196.584 99.7903 167.892 95.065L150.727 87.2695L136.678 116.329Z" fill="#7CFC00"/>
<path d="M77.7173 237.121C77.7173 237.121 76.1409 251.297 76.1409 255.432C76.1409 259.566 68.5737 283.784 79.6091 286.737C90.6444 289.69 89.6986 254.546 89.6986 254.546V236.53L77.7173 237.121Z" fill="#FFB9B9"/>
<path d="M208.566 223.831C208.566 223.831 210.457 237.416 209.511 240.37C208.566 243.323 218.655 269.017 205.097 270.494C191.54 271.97 195.008 239.779 195.008 239.779V223.831L208.566 223.831Z" fill="#FFB9B9"/>
<path d="M74.8796 322.768L84.0232 277.286H86.8609C88.845 279.682 90.1464 282.511 90.6427 285.507C91.1391 288.504 90.8142 291.569 89.6986 294.416C85.915 304.457 82.7621 322.768 82.7621 322.768H74.8796Z" fill="#2F2E41"/>
<path d="M83.3927 116.92L78.6632 120.464C78.6632 120.464 72.3573 214.38 73.9338 221.468C75.5103 228.556 68.2584 238.597 74.5644 239.483C80.8703 240.369 88.4374 244.209 91.9057 241.846C95.374 239.483 96.0046 230.919 97.2657 228.851C98.5269 226.784 100.734 202.271 100.734 202.271C100.734 202.271 107.355 177.759 103.256 159.448C99.1575 141.137 95.3739 122.531 95.3739 122.531L83.3927 116.92Z" fill="#7CFC00"/>
<path d="M183.342 109.537L197.845 121.055L208.881 181.303C208.881 181.303 215.817 228.261 210.457 228.852C205.097 229.443 196.9 227.966 193.431 228.852C189.963 229.738 187.125 227.375 187.125 227.375C187.125 227.375 183.342 208.474 183.342 208.179C183.342 207.883 180.819 186.324 180.819 186.324L177.667 162.107L182.396 135.526L183.342 109.537Z" fill="#7CFC00"/>
<path d="M114.922 388.332C114.922 388.332 112.873 393.846 110.048 401.353C108.736 404.844 107.257 408.769 105.735 412.771C104.754 415.358 103.758 417.977 102.777 420.535C101.213 424.625 99.6935 428.553 98.3661 431.926C96.613 436.377 95.1911 439.865 94.4281 441.492C90.9598 448.875 27.5851 437.062 22.5404 434.109C17.4956 431.155 16.2344 421.114 15.6038 406.938C15.6007 406.864 15.5975 406.79 15.5975 406.716C15.5155 403.855 16.2943 399.593 17.5965 394.593C18.246 392.094 19.0279 389.413 19.8982 386.628C21.0648 382.892 22.389 378.976 23.7731 375.077C29.7197 358.332 36.7287 341.964 36.7287 341.964C36.7287 341.964 49.0253 333.99 53.4394 328.674C57.8536 323.358 82.1315 319.224 82.1315 319.224C89.068 319.519 104.833 344.622 111.139 352.301C117.445 359.98 114.922 388.332 114.922 388.332Z" fill="#3F3D56"/>
<path d="M79.6091 343.441C81.1763 343.441 82.4468 342.251 82.4468 340.783C82.4468 339.315 81.1763 338.125 79.6091 338.125C78.0419 338.125 76.7714 339.315 76.7714 340.783C76.7714 342.251 78.0419 343.441 79.6091 343.441Z" fill="#2F2E41"/>
<path d="M84.0233 345.213C84.8939 345.213 85.5997 344.552 85.5997 343.736C85.5997 342.921 84.8939 342.26 84.0233 342.26C83.1526 342.26 82.4468 342.921 82.4468 343.736C82.4468 344.552 83.1526 345.213 84.0233 345.213Z" fill="#2F2E41"/>
<path d="M110.048 401.353C108.736 404.844 107.257 408.769 105.735 412.771L19.8982 386.628C21.0648 382.892 22.3891 378.976 23.7732 375.077L110.048 401.353Z" fill="#F2F2F2"/>
<path d="M102.777 420.535C101.213 424.625 99.6935 428.553 98.3661 431.926L15.5975 406.716C15.5155 403.854 16.2943 399.593 17.5965 394.593L102.777 420.535Z" fill="#F2F2F2"/>
<path d="M79.6091 341.374C79.6091 341.374 85.9151 367.363 82.1315 390.399C78.3479 413.435 91.5904 434.995 91.5904 434.995" stroke="#2F2E41" stroke-width="3" stroke-miterlimit="10"/>
<path d="M84.0233 343.441C84.0233 343.441 71.7267 385.379 71.4114 391.285C71.0961 397.192 66.0514 439.425 59.7454 443.855" stroke="#2F2E41" stroke-width="3" stroke-miterlimit="10"/>
<path d="M118.715 47.1903C118.715 47.1903 113.79 35.1972 120.931 31.2764L122.9 36.5811C122.9 36.5811 140.875 26.4331 145.553 28.7394L141.121 34.2747C141.121 34.2747 162.05 34.2747 163.528 41.8857L156.141 42.1163C156.141 42.1163 164.02 46.9597 164.266 54.8013L148.508 55.7238L156.141 59.8753C156.141 59.8753 127.579 63.5654 120.684 52.9562L118.715 47.1903Z" fill="#2F2E41"/>
<path d="M114.449 47.6648C114.449 47.6648 120.125 58.2968 127.692 55.6388C135.259 52.9807 127.692 43.2347 127.692 43.2347L122.647 40.8721L114.449 47.6648Z" fill="#2F2E41"/>
<path d="M603.847 215.395L500.936 94.9374C496.263 98.9402 490.506 101.663 484.293 102.809C464.918 106.383 445.998 93.9905 442.032 75.1294C440.665 68.8918 441.143 62.423 443.414 56.4211C445.685 50.4192 449.662 45.1121 454.917 41.0727L419.828 0L219.918 160.036L403.937 375.432L603.847 215.395Z" fill="#F2F2F2"/>
<path d="M475.976 97.0862C491.999 97.0862 504.988 84.9194 504.988 69.9108C504.988 54.9022 491.999 42.7354 475.976 42.7354C459.953 42.7354 446.964 54.9022 446.964 69.9108C446.964 84.9194 459.953 97.0862 475.976 97.0862Z" fill="#F2F2F2"/>
<path d="M294.441 191L285.564 200.623L315.471 224.829L324.348 215.206L294.441 191Z" fill="white"/>
<path d="M486.693 363.09L477.816 372.713L504.325 394.169L513.202 384.546L486.693 363.09Z" fill="white"/>
<path d="M534.591 291.416V292.162C534.573 294.036 534.516 295.901 534.419 297.758C532.694 329.534 518.059 359.489 493.514 381.484C468.969 403.479 436.372 415.848 402.405 416.056C368.437 416.264 335.671 404.295 310.821 382.603C285.971 360.911 270.919 331.138 268.749 299.385C268.568 296.749 268.478 294.092 268.478 291.416C268.43 265.602 276.983 240.418 292.944 219.375C294.22 217.679 295.548 216.015 296.926 214.381C297.877 213.245 298.854 212.134 299.841 211.032C322.302 186.108 354.298 170.422 388.964 167.341C423.63 164.26 458.204 174.028 485.27 194.55C486.872 195.763 488.447 197.017 489.985 198.298C491.216 199.324 492.426 200.372 493.615 201.443C517.027 222.42 531.438 250.694 534.13 280.936C534.437 284.396 534.591 287.889 534.591 291.416Z" fill="white"/>
<path d="M401.535 431.732C318.934 431.732 251.733 368.786 251.733 291.415C251.684 256.016 265.967 221.916 291.703 195.993L295.021 198.877C270.063 224.016 256.211 257.086 256.258 291.415C256.258 366.449 321.429 427.493 401.535 427.493C420.998 427.555 440.274 423.923 458.198 416.817C476.122 409.711 492.325 399.278 505.827 386.147L509.077 389.098C495.153 402.638 478.446 413.396 459.963 420.723C441.481 428.051 421.605 431.796 401.535 431.732Z" fill="white"/>
<path d="M423.258 428.765H385.242V464.374H423.258V428.765Z" fill="white"/>
<path d="M296.927 214.381C296.992 214.407 297.053 214.441 297.108 214.483C297.823 215.034 296.927 216.094 297.035 216.967C297.162 218.086 298.755 218.332 299.959 218.442C301.163 218.561 302.683 219.468 302.113 220.469C299.09 221.444 296.031 220.486 292.944 219.375C276.983 240.418 268.43 265.602 268.478 291.416C268.478 294.095 268.568 296.751 268.749 299.385C269.002 299.558 269.28 299.698 269.573 299.801C270.478 300.123 271.528 300.064 272.361 300.521C273.022 300.886 273.465 301.53 274.126 301.87C276.018 302.836 278.643 300.979 280.408 302.132C280.864 302.522 281.296 302.935 281.702 303.37C283.331 304.693 286.011 303.803 287.893 304.795C289.106 305.43 289.731 306.702 290.382 307.855C292.003 310.738 294.628 313.57 298.094 313.799C299.188 313.752 300.283 313.786 301.371 313.9C302.439 314.129 303.489 315.003 303.317 316.011C303.018 317.75 303.933 319.649 303.688 321.387C303.245 324.566 298.438 325.957 298.031 329.136C298.03 329.836 297.987 330.535 297.904 331.23C297.687 332.061 297.017 332.739 296.782 333.57C296.329 335.139 297.533 336.707 298.846 337.759C300.167 338.818 301.742 339.734 302.466 341.209C303.226 342.778 302.855 344.601 303.1 346.305C303.643 350.027 307.073 352.782 310.603 354.563C311.735 355.005 312.739 355.691 313.536 356.564C314.441 357.793 314.351 359.412 314.659 360.879C315.401 364.465 318.623 367.424 318.714 371.079C318.777 373.681 317.238 376.038 316.315 378.489C315.365 381.057 315.083 383.801 315.491 386.492C320.652 390.592 326.138 394.319 331.902 397.641C332.215 397.207 332.445 396.725 332.58 396.217C332.69 395.655 332.614 395.075 332.364 394.554C332.113 394.033 331.699 393.596 331.177 393.3C332.15 392.956 333.035 392.425 333.775 391.74C334.139 391.39 334.379 390.944 334.463 390.462C334.547 389.979 334.471 389.485 334.246 389.044C335.839 389.231 337.731 389.324 338.781 388.179C339.622 387.264 339.568 385.89 339.233 384.729C338.774 383.599 338.469 382.42 338.328 381.219C342.019 381.387 345.718 381.271 349.389 380.871C348.858 379.194 347.65 377.777 346.022 376.92C347.687 376.657 349.199 374.792 349.724 373.291C350.178 371.76 350.203 370.146 349.796 368.603C349.67 368.206 349.652 367.787 349.742 367.382C350.01 366.844 350.481 366.418 351.064 366.186C353.815 364.703 356.567 363.222 359.318 361.744C359.809 361.512 360.256 361.205 360.64 360.837C361.5 359.879 361.373 358.446 360.93 357.267C360.486 356.089 359.78 354.978 359.608 353.74C359.101 350.035 363.337 347.373 364.767 343.88C365.254 342.485 365.516 341.031 365.546 339.564C365.664 337.987 365.673 336.165 364.387 335.156C363.147 334.181 361.219 334.401 359.925 333.494C358.739 332.663 358.332 331.061 357.037 330.391C355.861 329.78 354.394 330.17 353.082 329.882C350.783 329.382 349.335 326.898 346.981 326.669C345.66 326.533 344.157 327.144 343.071 326.423C342.112 325.779 342.075 324.498 341.894 323.413C341.573 321.723 340.707 320.165 339.412 318.949C338.118 317.734 336.457 316.919 334.653 316.613C333.286 316.41 331.802 316.486 330.634 315.783C329.458 315.07 328.924 313.739 327.991 312.747C326.507 311.162 324.153 310.594 321.954 310.11C318.967 309.458 315.983 308.802 313.002 308.144C311.418 307.787 309.372 307.601 308.513 308.907C308.258 309.403 308.081 309.931 307.988 310.475C307.664 311.454 307.019 312.311 306.145 312.927C305.271 313.542 304.211 313.882 303.118 313.9C302.369 312.703 301.157 311.823 299.733 311.442C298.802 311.295 297.883 311.091 296.981 310.831C296.51 310.615 296.091 310.311 295.75 309.938C295.409 309.565 295.152 309.131 294.996 308.662C294.84 308.193 294.788 307.699 294.843 307.21C294.898 306.722 295.059 306.249 295.315 305.82C295.829 304.96 296.026 303.965 295.877 302.99C295.729 302.014 295.242 301.111 294.492 300.42C292.971 299.139 290.772 298.826 288.726 298.953C288.192 297.859 289.088 296.63 290.048 295.833C291.016 295.044 292.184 294.264 292.392 293.077C292.727 291.212 290.183 289.796 288.255 290.347C286.327 290.907 285.096 292.662 284.282 294.392C283.887 295.412 283.348 296.379 282.68 297.266C282.337 297.705 281.872 298.046 281.335 298.253C280.798 298.459 280.211 298.522 279.638 298.436C278.045 298.054 277.439 296.282 277.086 294.79C276.52 292.796 276.234 290.741 276.235 288.677C276.249 286.593 277.132 284.597 278.697 283.115C281.331 280.843 285.386 281.064 288.943 281.428C288.562 280.952 288.38 280.362 288.43 279.769C288.48 279.176 288.759 278.62 289.215 278.206C289.691 277.81 290.263 277.529 290.881 277.387C291.5 277.246 292.146 277.247 292.763 277.392C293.835 277.6 294.802 278.141 295.506 278.927C296.519 280.08 296.809 281.649 297.569 282.954C298.339 284.268 300.059 285.388 301.461 284.684C302.683 284.073 302.874 282.496 302.575 281.233C302.267 279.978 301.624 278.749 301.733 277.46C301.941 275.01 304.666 273.526 307.064 272.517C309.463 271.508 312.206 270.143 312.586 267.702C312.603 267.227 312.701 266.757 312.875 266.311C313.141 265.913 313.512 265.586 313.953 265.362C320.949 261.029 328.073 256.637 336.074 254.272C336.491 254.145 336.536 254.28 336.961 254.187C337.559 253.865 337.161 252.975 336.59 252.619C336.02 252.262 335.26 251.983 335.115 251.355C335.015 250.897 335.305 250.44 335.377 249.973C335.396 249.692 335.341 249.41 335.217 249.153C335.092 248.896 334.903 248.671 334.664 248.499C334.426 248.327 334.146 248.212 333.849 248.164C333.552 248.117 333.247 248.138 332.961 248.227C332.318 247.43 333.585 246.506 334.617 246.234C337.707 245.442 340.877 244.958 344.076 244.793C344.445 244.736 344.824 244.796 345.153 244.963C345.388 245.175 345.528 245.464 345.543 245.77C345.558 246.076 345.448 246.375 345.234 246.607C344.799 247.06 344.317 247.472 343.795 247.837C343.276 248.309 342.905 248.906 342.723 249.563C342.541 250.219 342.555 250.909 342.763 251.559C344.438 252.356 346.248 253.178 348.104 252.898C349.95 252.619 351.589 250.669 350.72 249.117C349.914 247.667 347.479 247.337 347.063 245.751C346.574 243.894 349.38 242.241 348.746 240.427C348.475 239.63 347.624 239.155 346.972 238.587C346.205 237.88 345.684 236.972 345.475 235.983C345.267 234.994 345.382 233.969 345.805 233.042C344.745 233.215 343.656 233.149 342.63 232.848C341.603 232.547 340.668 232.021 339.903 231.312C338.491 229.981 337.369 227.87 335.359 227.938C333.522 227.989 331.938 229.998 330.218 229.388C329.793 229.235 329.349 228.93 328.942 229.108C328.807 229.189 328.694 229.297 328.611 229.425C328.528 229.553 328.477 229.697 328.462 229.846C328.028 231.804 328.779 234.034 327.638 235.73C326.398 237.569 323.529 237.824 322.026 239.486C321.212 240.384 320.895 241.597 320.144 242.546C319.392 243.496 317.808 244.106 316.903 243.275C317.347 242.424 317.468 241.457 317.248 240.533C317.027 239.609 316.478 238.782 315.69 238.188C314.857 237.676 313.956 237.266 313.011 236.968C311.955 236.55 310.951 236.027 310.015 235.408C309.549 235.141 309.17 234.76 308.92 234.305C308.722 233.734 308.748 233.115 308.992 232.559C309.451 231.334 310.257 230.25 311.323 229.422C312.39 228.595 313.678 228.055 315.048 227.862C316.243 227.709 317.636 227.76 318.433 226.904C318.849 226.454 319.067 225.768 319.682 225.59C320.07 225.514 320.473 225.558 320.832 225.717C322.325 226.208 323.81 226.7 325.303 227.192C325.801 227.406 326.351 227.491 326.896 227.438C327.166 227.405 327.413 227.278 327.586 227.081C327.759 226.884 327.846 226.633 327.828 226.378C327.684 225.683 326.543 225.352 326.652 224.648C326.704 224.419 326.835 224.211 327.023 224.055C328.637 222.447 330.611 221.192 332.803 220.382C334.996 219.571 337.352 219.224 339.704 219.366C340.265 220.24 339.378 221.266 338.627 222.003C337.885 222.749 337.287 224.072 338.192 224.64C338.557 224.819 338.966 224.907 339.378 224.894C340.479 225.033 341.548 225.336 342.546 225.793C344.094 226.42 345.615 227.116 347.099 227.862C346.88 226.953 346.918 226.006 347.208 225.115C347.371 224.677 347.703 224.312 348.138 224.091C348.573 223.87 349.08 223.809 349.561 223.919C350.448 224.242 350.901 225.344 351.851 225.445C353.109 225.581 353.607 223.835 353.082 222.749C352.557 221.664 351.507 220.765 351.426 219.57C351.362 218.773 351.688 217.781 351.009 217.298C350.768 217.148 350.492 217.055 350.204 217.026C344.519 216.051 338.832 215.074 333.142 214.093C332.128 213.915 330.671 214.051 330.625 215.009C330.598 215.551 331.114 216.085 330.888 216.577C330.643 217.103 329.847 217.06 329.268 217.247C328.832 217.432 328.473 217.745 328.245 218.138C328.016 218.531 327.93 218.983 328 219.426C328.155 220.307 328.52 221.145 329.068 221.876C327.955 221.444 326.281 221.367 325.167 220.926C325.005 219.719 324.677 218.536 324.19 217.408C324.162 217.228 324.092 217.057 323.986 216.905C323.88 216.753 323.739 216.625 323.575 216.53C323.41 216.435 323.225 216.374 323.032 216.353C322.84 216.332 322.645 216.35 322.461 216.408C320.995 216.619 319.528 216.823 318.062 217.035C317.694 217.051 317.341 217.179 317.057 217.399C316.487 217.968 317.048 218.875 317.03 219.655C316.977 220.091 316.78 220.501 316.467 220.827C316.154 221.154 315.74 221.381 315.283 221.478C314.362 221.653 313.411 221.641 312.495 221.444C310.441 221.147 308.395 220.85 306.34 220.553C308.154 220.012 309.767 219.001 310.993 217.637C311.807 216.738 312.242 215.059 311.065 214.636C310.718 214.546 310.355 214.52 309.997 214.559C307.209 214.576 305.01 212.397 302.403 211.473C301.583 211.187 300.716 211.037 299.841 211.032L296.927 214.381Z" fill="#2F2E41"/>
<path d="M534.419 297.757C534.1 298.159 533.681 298.481 533.198 298.695C532.715 298.909 532.183 299.01 531.65 298.987C528.816 298.758 527.622 294.934 524.816 294.502C524.567 294.442 524.305 294.466 524.073 294.57C523.657 294.782 523.585 295.307 523.558 295.748C523.44 297.935 523.34 300.208 524.255 302.226C525.585 305.176 529.034 307.652 528.31 310.78C524.417 309.093 522.39 304.998 521.476 301.072C520.552 297.147 520.408 293.026 518.76 289.313C517.502 290.814 514.877 289.576 513.737 287.999C512.65 286.507 511.981 284.777 510.931 283.259C509.881 281.75 508.27 280.394 506.351 280.309C504.332 280.224 502.576 281.521 501.037 282.751C499.699 283.677 498.575 284.848 497.734 286.193C496.657 288.228 496.937 290.619 496.883 292.882C496.829 295.324 496.276 297.91 494.493 299.707C492.71 301.496 489.424 302.124 487.46 300.504C486.511 299.577 485.834 298.435 485.496 297.189C483.361 291.36 481.584 285.421 480.174 279.402C479.848 280.775 478.554 282.547 477.323 281.742C477.047 281.522 476.825 281.251 476.671 280.945C474.372 277.308 470.127 275.12 465.827 273.806C461.537 272.5 457.02 271.89 452.775 270.449C450.394 269.639 448.12 268.578 445.995 267.286C445.456 268.031 445.141 268.898 445.083 269.796C445.026 270.694 445.229 271.591 445.67 272.39C446.147 273.172 446.886 273.785 447.773 274.133C448.661 274.481 449.646 274.545 450.575 274.315C451.517 274.026 452.313 273.416 453.246 273.111C454.178 272.814 455.436 272.958 455.843 273.806C456.242 274.611 455.644 275.586 455.943 276.434C456.387 277.715 458.459 277.816 459.183 278.986C459.396 279.45 459.445 279.965 459.323 280.456C459.201 280.947 458.914 281.389 458.505 281.716C457.672 282.352 456.752 282.883 455.771 283.293C452.73 284.879 450.566 287.583 447.905 289.686C445.244 291.797 441.488 293.332 438.32 291.984C439.071 288.397 434.518 285.769 433.676 282.2C433.396 281.021 433.541 279.775 433.151 278.63C432.581 276.968 431.006 275.832 429.721 274.578C428.159 273.037 426.942 271.22 426.142 269.232C425.341 267.245 424.973 265.127 425.059 263.005C425.132 261.529 425.421 260.029 425.059 258.587C424.706 257.154 423.43 255.764 421.855 255.823C418.262 255.976 413.727 256.23 411.844 253.356C411.165 252.33 410.876 250.83 411.853 250.041C412.235 249.814 412.662 249.661 413.108 249.589C413.554 249.518 414.01 249.53 414.451 249.626C417.157 249.872 419.855 250.126 422.561 250.372C424.453 250.541 426.499 250.685 428.128 249.761C429.757 248.837 430.463 246.37 428.951 245.276C427.856 244.479 425.883 244.522 425.557 243.258C425.295 242.199 426.544 241.003 425.865 240.113C425.385 239.486 424.299 239.655 423.638 240.13C423.062 240.691 422.435 241.204 421.765 241.664C420.47 242.292 418.931 241.69 417.538 241.283C416.144 240.876 414.279 240.842 413.609 242.054C412.849 243.403 414.27 245.183 413.528 246.54C412.532 248.328 409.183 247.311 407.789 248.854C406.196 250.618 408.875 253.263 408.341 255.518C407.654 255.838 406.889 255.984 406.123 255.944C405.357 255.904 404.615 255.678 403.969 255.289C403.336 254.886 402.831 254.329 402.509 253.678C402.187 253.027 402.06 252.306 402.141 251.593C402.268 250.575 402.838 249.532 402.458 248.574C402.048 247.834 401.371 247.255 400.548 246.938C397.923 245.573 395.298 244.214 392.673 242.86C391.94 244.132 392.863 245.7 394.022 246.658C395.171 247.608 396.62 248.328 397.38 249.583C397.861 250.453 397.97 251.462 397.684 252.404C397.398 253.346 396.739 254.151 395.841 254.653C395.727 254.726 395.598 254.776 395.462 254.798C395.326 254.82 395.187 254.814 395.054 254.78C394.928 254.711 394.819 254.62 394.732 254.51C394.645 254.401 394.582 254.277 394.547 254.145C393.162 250.813 391.071 247.531 387.74 245.793C384.4 244.047 379.612 244.411 377.421 247.336C376.905 248.032 376.552 248.829 376.1 249.566C373.701 253.475 368.542 255.323 363.726 255.204C363.255 255.233 362.786 255.129 362.378 254.908C361.599 254.407 361.636 253.339 361.753 252.457C361.925 251.211 362.088 249.973 362.26 248.727C362.264 247.966 362.578 247.235 363.138 246.684C364.034 246.022 365.32 246.438 366.46 246.421C367.321 246.385 368.149 246.101 368.831 245.608C369.513 245.115 370.016 244.436 370.271 243.665C370.5 242.887 370.498 242.066 370.265 241.289C370.032 240.512 369.577 239.809 368.949 239.257C368.433 238.799 367.736 238.222 368.008 237.603C368.118 237.433 368.267 237.287 368.443 237.176C368.62 237.064 368.82 236.99 369.031 236.959C371.067 236.408 373.231 236.264 375.231 235.602C377.24 234.95 379.186 233.61 379.666 231.668C379.811 231.075 379.874 230.354 380.445 230.057C380.733 229.949 381.039 229.892 381.35 229.888C382.438 229.742 383.429 229.22 384.127 228.424C384.825 227.629 385.181 226.618 385.124 225.589C386.084 224.962 387.432 225.428 388.365 226.098C389.288 226.768 390.112 227.65 391.243 227.938C393.352 228.481 395.389 226.725 397.579 226.717C398.502 226.717 399.453 227.022 400.313 226.726C401.191 226.429 401.716 225.615 402.385 225.013C403.064 224.402 404.241 224.038 404.865 224.691C404.684 223.461 404.512 222.24 404.331 221.02C405.398 221.271 406.509 221.306 407.591 221.122C408.673 220.937 409.701 220.538 410.604 219.951C408.323 219.231 406.051 218.51 403.77 217.789C403.531 217.734 403.31 217.623 403.128 217.467C402.63 216.967 403.128 216.187 403.526 215.619C404.494 214.254 404.657 212.007 403.064 211.329C401.978 210.862 400.738 211.422 399.697 211.965C398.032 212.829 396.366 213.703 394.701 214.568C394.547 215.458 395.705 215.966 396.42 216.56C396.856 216.922 397.165 217.399 397.305 217.929C397.446 218.458 397.412 219.015 397.208 219.526C397.005 220.037 396.64 220.479 396.164 220.792C395.687 221.106 395.12 221.276 394.538 221.282C394.866 221.683 395.094 222.148 395.205 222.643C395.316 223.137 395.308 223.649 395.18 224.14C394.067 224.216 392.945 224.292 391.822 224.368C391.636 224.403 391.444 224.403 391.258 224.368C391.071 224.333 390.894 224.264 390.736 224.165C390.374 223.868 390.428 223.343 390.338 222.902C390.189 222.375 389.874 221.902 389.436 221.544C388.997 221.185 388.454 220.959 387.876 220.892C386.723 220.771 385.555 220.872 384.445 221.189C383.963 221.348 383.435 221.336 382.961 221.155C382.692 220.989 382.489 220.745 382.382 220.46C382.185 219.879 382.151 219.259 382.284 218.662C382.417 218.065 382.713 217.51 383.142 217.052C384.011 216.148 384.969 215.322 386.002 214.584C388.344 212.664 390.066 210.167 390.971 207.378C392.818 206.649 394.728 205.665 396.583 204.936C398.075 204.289 399.638 203.797 401.245 203.469C402.757 203.253 404.289 203.185 405.816 203.266C407.898 203.3 409.989 203.334 412.07 203.376C413.929 203.303 415.786 203.553 417.547 204.114C419.257 204.775 420.769 206.208 420.887 207.937C420.922 208.135 420.904 208.337 420.832 208.525C420.761 208.714 420.639 208.882 420.479 209.014C420.239 209.139 419.966 209.197 419.692 209.184C417.963 209.235 417.23 209.642 415.501 209.701C416.596 210.795 417.827 211.948 419.42 212.143C422.226 212.482 424.245 209.76 425.539 207.395C425.585 207.997 425.881 208.558 426.363 208.959C426.845 209.36 427.475 209.568 428.119 209.54C428.812 209.428 429.474 209.186 430.065 208.828C435.632 205.978 441.869 204.468 448.213 204.436C448.151 203.986 448.269 203.53 448.545 203.158C448.821 202.785 449.235 202.521 449.707 202.418C451.001 202.181 452.16 203.223 452.784 204.309C453.4 205.394 453.789 206.649 454.784 207.463C455.771 208.277 457.681 208.234 458.07 207.064C458.45 205.937 457.192 204.97 456.151 204.3C455.101 203.639 454.006 202.41 454.712 201.426C460.034 200.315 465.402 199.213 470.86 198.993C471.787 199.019 472.711 198.869 473.575 198.552C474.003 198.382 474.359 198.085 474.588 197.706C474.817 197.328 474.907 196.889 474.842 196.458C473.651 196.718 472.405 196.641 471.26 196.237C470.116 195.832 469.126 195.118 468.416 194.185C474.019 193.753 479.884 193.372 485.27 194.55L489.986 198.298C489.09 199.171 487.895 199.993 488.546 200.866C488.761 201.067 489.022 201.219 489.309 201.312C489.596 201.404 489.902 201.435 490.203 201.401C491.343 201.418 492.484 201.443 493.615 201.443C517.027 222.42 531.438 250.694 534.13 280.936C532.229 280.868 530.482 283.124 530.726 285.091C531.016 287.371 532.772 289.203 534.03 291.17C534.238 291.489 534.426 291.821 534.591 292.162L534.419 297.757Z" fill="#2F2E41"/>
<path d="M0 464.271H691" stroke="white" stroke-width="2" stroke-miterlimit="10"/>
<path d="M285.078 58.3295C291.42 58.3295 296.56 53.5143 296.56 47.5744C296.56 41.6346 291.42 36.8193 285.078 36.8193C278.737 36.8193 273.596 41.6346 273.596 47.5744C273.596 53.5143 278.737 58.3295 285.078 58.3295Z" stroke="white" stroke-width="2" stroke-miterlimit="10"/>
<path d="M624.353 263.146C630.694 263.146 635.835 258.331 635.835 252.391C635.835 246.451 630.694 241.636 624.353 241.636C618.012 241.636 612.871 246.451 612.871 252.391C612.871 258.331 618.012 263.146 624.353 263.146Z" stroke="white" stroke-width="2" stroke-miterlimit="10"/>
<path d="M545.967 155.999C552.308 155.999 557.449 151.184 557.449 145.244C557.449 139.304 552.308 134.489 545.967 134.489C539.626 134.489 534.485 139.304 534.485 145.244C534.485 151.184 539.626 155.999 545.967 155.999Z" stroke="white" stroke-width="2" stroke-miterlimit="10"/>
<path d="M470.633 248.17C477.75 248.17 483.519 242.767 483.519 236.101C483.519 229.435 477.75 224.031 470.633 224.031C463.517 224.031 457.748 229.435 457.748 236.101C457.748 242.767 463.517 248.17 470.633 248.17Z" fill="#355E3B"/>
<path d="M512.024 213.217C521.405 213.217 529.009 206.094 529.009 197.307C529.009 188.521 521.405 181.397 512.024 181.397C502.643 181.397 495.038 188.521 495.038 197.307C495.038 206.094 502.643 213.217 512.024 213.217Z" fill="white"/>
<path d="M529.202 180.813C524.643 176.648 518.504 174.349 512.135 174.423C505.767 174.497 499.691 176.937 495.244 181.207C485.982 190.1 472.76 235.007 472.76 235.007C472.76 235.007 520.361 221.514 529.622 212.621C534.069 208.351 536.524 202.601 536.445 196.636C536.366 190.671 533.76 184.979 529.202 180.813ZM504.253 204.768C502.677 203.329 501.593 201.484 501.137 199.467C500.681 197.45 500.874 195.352 501.691 193.438C502.508 191.523 503.912 189.879 505.727 188.712C507.542 187.546 509.685 186.909 511.886 186.884C514.087 186.858 516.246 187.445 518.091 188.569C519.936 189.693 521.384 191.304 522.252 193.199C523.119 195.094 523.367 197.187 522.964 199.214C522.562 201.241 521.527 203.11 519.99 204.586C517.929 206.565 515.113 207.696 512.162 207.73C509.21 207.764 506.366 206.699 504.253 204.768Z" fill="#7CFC00"/>
</g>
<defs>
<clipPath id="clip0_336_530">
<rect width="691" height="465" fill="white"/>
</clipPath>
</defs>
</svg>
